<?xml version="1.0" encoding="UTF-8"?>
<svg width="368px" height="64px" viewBox="0 0 368 64" version="1.1" xmlns="http://www.w3.org/2000/svg" xmlns:xlink="http://www.w3.org/1999/xlink">
    <!-- Generator: Sketch 51.1 (57501) - http://www.bohemiancoding.com/sketch  -->
    <title>Logo Color (Ready to export)</title>
    <desc>Created with Sketch.</desc>
    <defs></defs>
    <g id="Logo-Color-(Ready-to-export)" stroke="none" stroke-width="1" fill="none" fill-rule="evenodd">
        <text id="Blockchain-derivativ" font-family="Arial" font-size="16.9" font-weight="300" fill="#9D9D9D">
            <tspan x="0" y="63.5">Ether Betting and Bookmaking</tspan>
        </text>
        <path d="M14.5509,0.512372898 C17.1873132,0.512372898 19.6208888,1.16301639 21.8517,2.4643229 C24.0825112,3.7656294 25.8485435,5.53166174 27.14985,7.7624729 C28.4511565,9.99328405 29.1018,12.4268597 29.1018,15.0632729 L29.1018,22.7696729 C29.1018,25.4060861 28.4511565,27.8396617 27.14985,30.0704729 C25.8485435,32.3012841 24.0825112,34.0673164 21.8517,35.3686229 C19.6208888,36.6699294 17.1873132,37.3205729 14.5509,37.3205729 C11.9144868,37.3205729 9.48091115,36.6699294 7.2501,35.3686229 C5.01928885,34.0673164 3.25325651,32.3012841 1.95195,30.0704729 C0.650643493,27.8396617 0,25.4060861 0,22.7696729 L0,15.0632729 C0,12.4268597 0.650643493,9.99328405 1.95195,7.7624729 C3.25325651,5.53166174 5.01928885,3.7656294 7.2501,2.4643229 C9.48091115,1.16301639 11.9144868,0.512372898 14.5509,0.512372898 Z M1.8759,22.7696729 C1.8759,25.0680844 2.44204434,27.1890132 3.57435,29.1325229 C4.70665566,31.0760326 6.24454028,32.6139172 8.18805,33.7462229 C10.1315597,34.8785286 12.2524885,35.4446729 14.5509,35.4446729 C16.8493115,35.4446729 18.9702403,34.8785286 20.91375,33.7462229 C22.8572597,32.6139172 24.3951443,31.0760326 25.52745,29.1325229 C26.6597557,27.1890132 27.2259,25.0680844 27.2259,22.7696729 L27.2259,15.0632729 C27.2259,12.7648614 26.6597557,10.6439326 25.52745,8.7004229 C24.3951443,6.75691318 22.8572597,5.21902856 20.91375,4.0867229 C18.9702403,2.95441724 16.8493115,2.3882729 14.5509,2.3882729 C12.2524885,2.3882729 10.1315597,2.95441724 8.18805,4.0867229 C6.24454028,5.21902856 4.70665566,6.75691318 3.57435,8.7004229 C2.44204434,10.6439326 1.8759,12.7648614 1.8759,15.0632729 L1.8759,22.7696729 Z M59.7246,2.4389729 C61.7526101,3.38537763 63.3496442,4.7880636 64.51575,6.6470729 C65.6818558,8.50608219 66.2649,10.5678616 66.2649,12.8324729 C66.2649,15.4688861 65.462158,17.8264125 63.85665,19.9051229 C62.251142,21.9838333 60.1978125,23.3611695 57.6966,24.0371729 L66.6705,36.5600729 L64.4397,36.5600729 L55.77,24.3920729 L54.1476,24.4427729 L41.4219,24.4427729 L41.4219,36.5600729 L39.546,36.5600729 L39.546,1.2728729 L52.9815,1.2728729 C54.4687074,1.2728729 55.7446447,1.36582197 56.80935,1.5517229 C57.8740553,1.73762383 58.8457956,2.03337087 59.7246,2.4389729 Z M54.6546,22.5668729 C56.4122088,22.5668729 58.0345926,22.1274773 59.5218,21.2486729 C61.0090074,20.3698685 62.1919956,19.1868803 63.0708,17.6996729 C63.9496044,16.2124655 64.389,14.5900817 64.389,12.8324729 C64.389,10.8720631 63.8735552,9.09758084 62.84265,7.5089729 C61.8117448,5.92036496 60.3837091,4.73737679 58.5585,3.9599729 C57.2402934,3.41917019 55.381312,3.1487729 52.9815,3.1487729 L41.4219,3.1487729 L41.4219,22.5668729 L54.6546,22.5668729 Z M114.9876,23.0738729 C114.9876,25.3046841 115.553744,27.3664634 116.68605,29.2592729 C117.818356,31.1520824 119.33934,32.6561673 121.24905,33.7715729 C123.15876,34.8869785 125.228989,35.4446729 127.4598,35.4446729 C129.758211,35.4446729 131.836891,34.9883775 133.6959,34.0757729 C135.554909,33.1631683 137.016745,31.895681 138.08145,30.2732729 C139.146155,28.6508648 139.6954,26.825683 139.7292,24.7976729 L141.5544,24.7976729 C141.5544,27.1298846 140.937556,29.2508133 139.70385,31.1605229 C138.470144,33.0702324 136.780161,34.5743174 134.63385,35.6728229 C132.487539,36.7713284 130.096213,37.3205729 127.4598,37.3205729 C124.890987,37.3205729 122.508111,36.6783793 120.3111,35.3939729 C118.114089,34.1095665 116.373406,32.3773338 115.089,30.1972229 C113.804594,28.017112 113.1624,25.6426857 113.1624,23.0738729 L113.1624,14.7590729 C113.1624,12.1902601 113.796144,9.8158338 115.06365,7.6357229 C116.331156,5.455612 118.054939,3.72337932 120.23505,2.4389729 C122.415161,1.15456648 124.789587,0.512372898 127.3584,0.512372898 C129.961013,0.512372898 132.335439,1.06161741 134.48175,2.1601229 C136.628061,3.25862839 138.326494,4.76271335 139.5771,6.6724229 C140.827706,8.58213245 141.453,10.7030612 141.453,13.0352729 L139.6278,13.0352729 C139.594,11.0072628 139.036305,9.18208101 137.9547,7.5596729 C136.873095,5.93726479 135.411259,4.66977746 133.56915,3.7571729 C131.727041,2.84456834 129.656811,2.3882729 127.3584,2.3882729 C125.127589,2.3882729 123.065809,2.94596732 121.173,4.0613729 C119.280191,5.17677848 117.776106,6.68086343 116.6607,8.5736729 C115.545294,10.4664824 114.9876,12.5282617 114.9876,14.7590729 L114.9876,23.0738729 Z M153.7224,36.5600729 L153.7224,1.2728729 L155.5983,1.2728729 L155.5983,34.6841729 L180.1878,34.6841729 L180.1878,36.5600729 L153.7224,36.5600729 Z M240.4194,19.6769729 C237.546386,19.10237 235.205759,18.4686264 233.39745,17.7757229 C231.589141,17.0828194 230.169555,16.1364289 229.13865,14.9365229 C228.107745,13.7366169 227.5923,12.1902824 227.5923,10.2974729 C227.5923,8.3370631 228.107745,6.61328033 229.13865,5.1260729 C230.169555,3.63886546 231.622941,2.48967695 233.49885,1.6784729 C235.374759,0.867268842 237.546388,0.461672898 240.0138,0.461672898 C242.379812,0.461672898 244.55144,0.960217913 246.52875,1.9573229 C248.50606,2.95442788 250.069294,4.34866394 251.2185,6.1400729 C252.367706,7.93148186 252.9423,9.97636141 252.9423,12.2747729 L251.0664,12.2747729 C251.0664,10.2805629 250.576305,8.5229805 249.5961,7.0019729 C248.615895,5.48096529 247.280808,4.30642704 245.5908,3.4783229 C243.900792,2.65021876 242.02491,2.2361729 239.9631,2.2361729 C238.137891,2.2361729 236.431008,2.52347003 234.8424,3.0980729 C233.253792,3.67267577 231.960955,4.55146698 230.96385,5.7344729 C229.966745,6.91747881 229.4682,8.40466394 229.4682,10.1960729 C229.4682,11.818481 229.941395,13.1113181 230.8878,14.0746229 C231.834205,15.0379277 233.067892,15.7730704 234.5889,16.2800729 C236.109908,16.7870754 238.239286,17.32787 240.9771,17.9024729 C243.748714,18.4770758 245.903442,19.0263203 247.44135,19.5502229 C248.979258,20.0741255 250.280545,20.9444668 251.34525,22.1612729 C252.409955,23.378079 252.9423,25.0849619 252.9423,27.2819729 C252.9423,29.4789839 252.359256,31.3295154 251.19315,32.8336229 C250.027044,34.3377304 248.48071,35.4615692 246.5541,36.2051729 C244.62749,36.9487766 242.531911,37.3205729 240.2673,37.3205729 C237.461886,37.3205729 234.994511,36.7966781 232.8651,35.7488729 C230.735689,34.7010677 229.104856,33.2223324 227.97255,31.3126229 C226.840244,29.4029133 226.2741,27.2143852 226.2741,24.7469729 L228.15,24.7469729 C228.15,26.9101837 228.631645,28.8029648 229.59495,30.4253729 C230.558255,32.047781 231.952491,33.3068184 233.7777,34.2025229 C235.602909,35.0982274 237.766087,35.5460729 240.2673,35.5460729 C243.376916,35.5460729 245.95414,34.8024803 247.99905,33.3152729 C250.04396,31.8280655 251.0664,29.8000857 251.0664,27.2312729 C251.0664,25.4736641 250.627004,24.1216776 249.7482,23.1752729 C248.869396,22.2288682 247.762457,21.544425 246.42735,21.1219229 C245.092243,20.6994208 243.089613,20.2177756 240.4194,19.6769729 Z M276.2136,13.3394729 L272.9688,1.2728729 L293.9079,1.2728729 L284.427,36.5600729 L282.4497,36.5600729 L277.1769,16.9391729 L271.9041,36.5600729 L269.9268,36.5600729 L260.4459,1.2728729 L262.3725,1.2728729 L270.8901,33.0617729 L276.2136,13.3394729 Z M291.4743,3.1487729 L275.4024,3.1487729 L278.1402,13.3394729 L283.4637,33.0617729 L291.4743,3.1487729 Z M342.3771,36.5600729 L340.5012,36.5600729 L340.5012,1.2728729 L354.6972,1.2728729 C357.063212,1.2728729 359.25174,1.77986783 361.26285,2.7938729 C363.27396,3.80787797 364.870994,5.2443636 366.054,7.1033729 C367.237006,8.96238219 367.8285,11.1086607 367.8285,13.5422729 C367.8285,15.8744846 367.228556,18.0207631 366.02865,19.9811729 C364.828744,21.9415827 363.19791,23.4456677 361.1361,24.4934729 C359.344691,25.4060775 357.198413,25.8623729 354.6972,25.8623729 L342.3771,25.8623729 L342.3771,36.5600729 Z M191.8488,19.325662 L189.9729,19.325662 L189.9729,17.4494706 L199.978267,17.4494706 L199.978267,17.4461729 L214.8159,17.4461729 L214.8159,19.3220729 L191.8488,19.3220729 L191.8488,19.325662 Z M191.8488,34.6777801 L191.8488,34.6841729 L214.8159,34.6841729 L214.8159,36.5600729 L189.9729,36.5600729 L189.9729,34.6777801 L191.8488,34.6777801 Z M199.978267,3.1487729 L199.978267,3.14110254 L189.9729,3.14110254 L189.9729,1.2728729 L214.8159,1.2728729 L214.8159,3.1487729 L199.978267,3.1487729 Z M342.3771,23.9864729 L342.3771,3.1487729 L354.6972,3.1487729 C356.826611,3.1487729 358.584193,3.48676952 359.97,4.1627729 C361.795209,5.00777712 363.248595,6.27526445 364.3302,7.9652729 C365.411805,9.65528135 365.9526,11.5142628 365.9526,13.5422729 C365.9526,15.6040832 365.411805,17.4799644 364.3302,19.1699729 C363.248595,20.8599813 361.812109,22.1274687 360.0207,22.9724729 C358.634893,23.6484763 356.860411,23.9864729 354.6972,23.9864729 L342.3771,23.9864729 Z" id="Combined-Shape" fill="#FFFFFF"></path>
        <path d="M106.2165,0.512372898 L89.5869,36.5600729 L72.9573,0.512372898 L106.2165,0.512372898 Z M75.8428584,2.23061142 L89.5318584,31.9408114 L103.220858,2.23061142 L75.8428584,2.23061142 Z" id="Combined-Shape" fill="#D55757"></path>
        <path d="M331.447142,36.5600729 L298.187942,36.5600729 L314.817542,0.512372898 L331.447142,36.5600729 Z M301.107877,34.659228 L328.734451,34.659228 L314.921164,5.17109128 L301.107877,34.659228 Z" id="Combined-Shape" fill="#70B43F"></path>
    </g>
</svg>
