<?xml version="1.0" encoding="UTF-8"?>
<svg width="84px" height="69px" viewBox="0 0 84 69" version="1.1" xmlns="http://www.w3.org/2000/svg" xmlns:xlink="http://www.w3.org/1999/xlink">
    <!-- Generator: Sketch 51.1 (57501) - http://www.bohemiancoding.com/sketch -->
    <title>combine</title>
    <desc>Created with Sketch.</desc>
    <defs></defs>
    <g id="(Update-11/01)-Final-without-color" stroke="none" stroke-width="1" fill="none" fill-rule="evenodd">
        <g id="Home" transform="translate(-1196.000000, -812.000000)" fill="#FFFFFF" fill-rule="nonzero">
            <g id="combine" transform="translate(1197.227645, 812.934059)">
                <path d="M77.3801847,0.0477013228 L40.726413,0.0477013228 L4.0726413,0.0477013228 C1.7647582,0.0477013228 0,2.02953943 0,4.6213113 L0,62.5537639 C0,65.1455358 1.7647582,67.1273739 4.0726413,67.1273739 L40.726413,67.1273739 L77.3801847,67.1273739 C79.6880678,67.1273739 81.452826,65.1455358 81.452826,62.5537639 L81.452826,4.6213113 C81.452826,2.02953943 79.6880678,0.0477013228 77.3801847,0.0477013228 Z M39.776183,40.1428963 C39.5046206,40.4478632 39.3689189,40.7526515 39.3689189,41.2100125 L39.3689189,64.0780623 L4.0726413,64.0780623 C3.25811304,64.0780623 2.71514723,63.4683072 2.71514723,62.5535852 L2.71514723,4.6213113 C2.71514723,3.7065893 3.25811304,3.09683419 4.0726413,3.09683419 L39.3689189,3.09683419 L39.3689189,25.9648841 C39.3689189,26.4222451 39.5046206,26.727212 39.776183,27.0320002 L45.6135825,33.5874483 L39.776183,40.1428963 Z M78.7376787,62.5535852 C78.7376787,63.4683072 78.1947129,64.0780623 77.3801847,64.0780623 L42.083907,64.0780623 L42.083907,41.8199462 L48.4644314,34.6545644 C49.0073973,34.0448093 49.0073973,33.1300873 48.4644314,32.5201535 L42.083907,25.3547716 L42.083907,3.09665554 L77.3801847,3.09665554 C78.1947129,3.09665554 78.7376787,3.70641065 78.7376787,4.62113264 L78.7376787,62.5535852 Z" id="Shape" stroke="#272727" stroke-width="1.7"></path>
                <path d="M8.1452826,10.7193984 L19.0057124,10.7193984 C19.8202407,10.7193984 20.3632065,10.1096433 20.3632065,9.19492128 C20.3632065,8.28019928 19.8202407,7.67044417 19.0057124,7.67044417 L8.1452826,7.67044417 C7.33075434,7.67044417 6.78778853,8.28019928 6.78778853,9.19492128 C6.78778853,10.1096433 7.33075434,10.7193984 8.1452826,10.7193984 Z" id="Shape"></path>
                <path d="M12.2179239,15.2930084 C12.2179239,16.2077304 12.7608897,16.8174855 13.575418,16.8174855 L24.4358478,16.8174855 C25.250376,16.8174855 25.7933419,16.2077304 25.7933419,15.2930084 C25.7933419,14.3782864 25.250376,13.7685313 24.4358478,13.7685313 L13.575418,13.7685313 C12.7608897,13.7685313 12.2179239,14.3782864 12.2179239,15.2930084 Z" id="Shape"></path>
                <path d="M29.8659832,19.8666183 L13.575418,19.8666183 C12.7608897,19.8666183 12.2179239,20.4763734 12.2179239,21.3910954 C12.2179239,22.3058174 12.7608897,22.9155725 13.575418,22.9155725 L29.8659832,22.9155725 C30.6805114,22.9155725 31.2234772,22.3058174 31.2234772,21.3910954 C31.2234772,20.4763734 30.6805114,19.8666183 29.8659832,19.8666183 Z" id="Shape"></path>
                <path d="M8.1452826,29.0138383 L19.0057124,29.0138383 C19.8202407,29.0138383 20.3632065,28.4040832 20.3632065,27.4893612 C20.3632065,26.5746392 19.8202407,25.9648841 19.0057124,25.9648841 L8.1452826,25.9648841 C7.33075434,25.9648841 6.78778853,26.5746392 6.78778853,27.4893612 C6.78778853,28.4040832 7.33075434,29.0138383 8.1452826,29.0138383 Z" id="Shape"></path>
                <path d="M8.1452826,35.1119254 L13.575418,35.1119254 C14.3899462,35.1119254 14.932912,34.5021703 14.932912,33.5874483 C14.932912,32.6727263 14.3899462,32.0629712 13.575418,32.0629712 L8.1452826,32.0629712 C7.33075434,32.0629712 6.78778853,32.6727263 6.78778853,33.5874483 C6.78778853,34.5021703 7.33075434,35.1119254 8.1452826,35.1119254 Z" id="Shape"></path>
                <path d="M12.2179239,39.6855353 C12.2179239,40.6002573 12.7608897,41.2100125 13.575418,41.2100125 L24.4358478,41.2100125 C25.250376,41.2100125 25.7933419,40.6002573 25.7933419,39.6855353 C25.7933419,38.7708133 25.250376,38.1610582 24.4358478,38.1610582 L13.575418,38.1610582 C12.7608897,38.1610582 12.2179239,38.7708133 12.2179239,39.6855353 Z" id="Shape"></path>
                <path d="M29.8659832,44.2591453 L19.0055533,44.2591453 C18.1910251,44.2591453 17.6480593,44.8689004 17.6480593,45.7836224 C17.6480593,46.6983444 18.1910251,47.3080995 19.0055533,47.3080995 L29.8659832,47.3080995 C30.6805114,47.3080995 31.2234772,46.6983444 31.2234772,45.7836224 C31.2234772,44.8689004 30.6805114,44.2591453 29.8659832,44.2591453 Z" id="Shape"></path>
                <path d="M47.5142015,47.3082782 L54.30199,47.3082782 C55.1165183,47.3082782 55.6594841,46.6985231 55.6594841,45.7838011 C55.6594841,44.8690791 55.1165183,44.259324 54.30199,44.259324 L47.5142015,44.259324 C46.6996732,44.259324 46.1567074,44.8690791 46.1567074,45.7838011 C46.1567074,46.6985231 46.6996732,47.3082782 47.5142015,47.3082782 Z" id="Shape"></path>
                <path d="M21.7207006,56.4554981 L10.8604298,56.4554981 C10.0459016,56.4554981 9.50293575,57.0652533 9.50293575,57.9799752 C9.50293575,58.8946972 10.0459016,59.5044524 10.8604298,59.5044524 L21.7208596,59.5044524 C22.5353879,59.5044524 23.0783537,58.8946972 23.0783537,57.9799752 C23.0783537,57.0652533 22.5352288,56.4554981 21.7207006,56.4554981 Z" id="Shape"></path>
                <path d="M14.9330711,51.8818882 C14.9330711,50.9671662 14.3901053,50.3574111 13.5755771,50.3574111 L8.1452826,50.3574111 C7.33075434,50.3574111 6.78778853,50.9671662 6.78778853,51.8818882 C6.78778853,52.7966102 7.33075434,53.4063653 8.1452826,53.4063653 L13.575418,53.4063653 C14.3899462,53.4063653 14.9330711,52.7966102 14.9330711,51.8818882 Z" id="Shape"></path>
                <path d="M59.7321254,9.19492128 C59.7321254,8.28019928 59.1891596,7.67044417 58.3746313,7.67044417 L47.5142015,7.67044417 C46.6996732,7.67044417 46.1567074,8.28019928 46.1567074,9.19492128 C46.1567074,10.1096433 46.6996732,10.7193984 47.5142015,10.7193984 L58.3746313,10.7193984 C59.1890005,10.7193984 59.7321254,10.1096433 59.7321254,9.19492128 Z" id="Shape"></path>
                <path d="M51.5868428,15.2930084 C51.5868428,16.2077304 52.1298086,16.8174855 52.9443369,16.8174855 L67.877408,16.8174855 C68.6919362,16.8174855 69.2349021,16.2077304 69.2349021,15.2930084 C69.2349021,14.3782864 68.6919362,13.7685313 67.877408,13.7685313 L52.9443369,13.7685313 C52.1298086,13.7685313 51.5868428,14.3782864 51.5868428,15.2930084 Z" id="Shape"></path>
                <path d="M70.5923961,19.8666183 L52.9443369,19.8666183 C52.1298086,19.8666183 51.5868428,20.4763734 51.5868428,21.3910954 C51.5868428,22.3058174 52.1298086,22.9155725 52.9443369,22.9155725 L70.5923961,22.9155725 C71.4069244,22.9155725 71.9498902,22.3058174 71.9498902,21.3910954 C71.9498902,20.4763734 71.4069244,19.8666183 70.5923961,19.8666183 Z" id="Shape"></path>
                <path d="M66.5197548,29.0138383 C67.3342831,29.0138383 67.8772489,28.4040832 67.8772489,27.4893612 C67.8772489,26.5746392 67.3342831,25.9648841 66.5197548,25.9648841 L58.3744722,25.9648841 C57.559944,25.9648841 57.0169782,26.5746392 57.0169782,27.4893612 C57.0169782,28.4040832 57.559944,29.0138383 58.3744722,29.0138383 L66.5197548,29.0138383 Z" id="Shape"></path>
                <path d="M55.6594841,33.5874483 C55.6594841,34.5021703 56.2024499,35.1119254 57.0169782,35.1119254 L59.7321254,35.1119254 C60.5466537,35.1119254 61.0896195,34.5021703 61.0896195,33.5874483 C61.0896195,32.6727263 60.5466537,32.0629712 59.7321254,32.0629712 L57.0169782,32.0629712 C56.2024499,32.0629712 55.6594841,32.6727263 55.6594841,33.5874483 Z" id="Shape"></path>
                <path d="M67.877408,38.1610582 L54.30199,38.1610582 C53.4874618,38.1610582 52.944496,38.7708133 52.944496,39.6855353 C52.944496,40.6002573 53.4874618,41.2100125 54.30199,41.2100125 L67.877408,41.2100125 C68.6919362,41.2100125 69.2349021,40.6002573 69.2349021,39.6855353 C69.2349021,38.7708133 68.6919362,38.1610582 67.877408,38.1610582 Z" id="Shape"></path>
                <path d="M58.3744722,56.4554981 L47.5140424,56.4554981 C46.6995142,56.4554981 46.1565483,57.0652533 46.1565483,57.9799752 C46.1565483,58.8946972 46.6995142,59.5044524 47.5140424,59.5044524 L58.3744722,59.5044524 C59.1890005,59.5044524 59.7319663,58.8946972 59.7319663,57.9799752 C59.7319663,57.0652533 59.1890005,56.4554981 58.3744722,56.4554981 Z" id="Shape"></path>
                <path d="M61.0896195,50.3574111 L51.5868428,50.3574111 C50.7723145,50.3574111 50.2293487,50.9671662 50.2293487,51.8818882 C50.2293487,52.7966102 50.7723145,53.4063653 51.5868428,53.4063653 L61.0896195,53.4063653 C61.9041477,53.4063653 62.4471135,52.7966102 62.4471135,51.8818882 C62.4471135,50.9671662 61.9041477,50.3574111 61.0896195,50.3574111 Z" id="Shape"></path>
            </g>
        </g>
    </g>
</svg>