<?xml version="1.0" encoding="UTF-8"?>
<svg width="63px" height="84px" viewBox="0 0 63 84" version="1.1" xmlns="http://www.w3.org/2000/svg" xmlns:xlink="http://www.w3.org/1999/xlink">
    <!-- Generator: Sketch 51.1 (57501) - http://www.bohemiancoding.com/sketch -->
    <title>TechnicalAppendixIcon</title>
    <desc>Created with Sketch.</desc>
    <defs></defs>
    <g id="(Update-11/01)-Final-without-color" stroke="none" stroke-width="1" fill="none" fill-rule="evenodd">
        <g id="Home" transform="translate(-758.000000, -808.000000)" fill="#FFFFFF">
            <g id="TechnicalAppendixIcon" transform="translate(758.000000, 807.000000)">
                <g id="notebook" stroke-width="1" transform="translate(0.155583, 0.835599)" stroke="#272727">
                    <path d="M0.90708439,0.872793297 L0.90708439,74.792587 L6.61424613,74.792587 L6.61424613,82.5778766 L11.9214079,79.147227 L17.2285696,82.5778766 L17.2285696,74.792587 L56.1576186,74.792587 C59.0826161,74.792587 61.4590731,72.4877306 61.4590731,69.6629126 L61.4590731,6.00246764 C61.4590731,3.17764963 59.0826161,0.872793297 56.1576186,0.872793297 L0.90708439,0.872793297 Z M43.7107975,72.8249822 L2.96066526,72.8249822 L2.96066526,2.84039807 L43.7107975,2.84039807 L43.7107975,72.8249822 Z M11.9214079,76.7732619 L8.66782701,78.8780158 L8.66782701,74.792587 L15.1749887,74.792587 L15.1749887,78.8780158 L11.9214079,76.7732619 Z M45.7643783,72.8249822 L45.7643783,2.84039807 L50.8447496,2.84039807 L50.8447496,72.8249822 L45.7643783,72.8249822 Z M52.8983305,23.6071205 L59.4054923,23.6071205 L59.4054923,52.0831682 L52.8983305,52.0831682 L52.8983305,23.6071205 Z M59.4054923,69.6629126 C59.4054923,71.4097322 57.9457725,72.8249822 56.1576186,72.8249822 L52.8983305,72.8249822 L52.8983305,51.2831682 L59.4054923,51.2831682 L59.4054923,69.6629126 Z M52.8983305,24.4071205 L52.8983305,2.84039807 L56.1576186,2.84039807 C57.9462742,2.84039807 59.4054923,4.25614064 59.4054923,6.00246764 L59.4054923,24.4071205 L52.8983305,24.4071205 Z" id="Shape" stroke-width="0.8" fill-rule="nonzero"></path>
                </g>
                <polygon id="+" points="22.5192649 48.6770987 22.5192649 40.3170987 14.5192649 40.3170987 14.5192649 37.5970987 22.5192649 37.5970987 22.5192649 29.2370987 25.5592649 29.2370987 25.5592649 37.5970987 33.5592649 37.5970987 33.5592649 40.3170987 25.5592649 40.3170987 25.5592649 48.6770987"></polygon>
            </g>
        </g>
    </g>
</svg>