<?xml version="1.0" encoding="UTF-8"?>
<svg width="77px" height="71px" viewBox="0 0 77 71" version="1.1" xmlns="http://www.w3.org/2000/svg" xmlns:xlink="http://www.w3.org/1999/xlink">
    <!-- Generator: Sketch 51.1 (57501) - http://www.bohemiancoding.com/sketch -->
    <title>spreadsheet-chart</title>
    <desc>Created with Sketch.</desc>
    <defs></defs>
    <g id="(Update-11/01)-Final-without-color" stroke="none" stroke-width="1" fill="none" fill-rule="evenodd">
        <g id="Home" transform="translate(-967.000000, -811.000000)" fill="#FFFFFF" fill-rule="nonzero" stroke="#272727" stroke-width="1.2">
            <g id="spreadsheet-chart" transform="translate(968.518721, 812.434059)">
                <path d="M31.5236181,24.0375655 L48.3798239,24.0375655 L48.3798239,28.1878599 L50.6270146,28.1878599 L50.6270146,24.0375655 L67.9190011,24.0375655 L67.9190011,28.1878599 L70.1657208,28.1878599 L70.1657208,2.86406848 C70.1657208,1.35568966 68.9899291,0.12844238 67.545385,0.12844238 L2.62112062,0.12844238 C1.17500676,0.12860621 0,1.35667264 0,2.86406848 L0,62.8027536 C0,63.7287183 0.445670565,64.5455725 1.12320285,65.041157 L1.12320285,65.4725202 L2.06320826,65.4725202 C2.24358003,65.5138053 2.4291322,65.5382159 2.62112062,65.5382159 L32.4436869,65.5382159 L32.4436869,63.126317 L31.5234612,63.126317 L31.5234612,55.6997589 L32.4436869,55.6997589 L32.4436869,53.3537195 L31.5234612,53.3537195 L31.5234612,45.6530746 L32.4436869,45.6530746 L32.4436869,43.3083459 L31.5234612,43.3083459 L31.5234612,35.1771568 L32.4436869,35.1771568 L32.4436869,32.8329196 L31.5234612,32.8329196 L31.5234612,24.0375655 L31.5236181,24.0375655 Z M50.6270146,2.47284347 L67.5431873,2.47284347 C67.749775,2.47284347 67.9191581,2.6486326 67.9191581,2.86423231 L67.9191581,10.7478749 L50.6270146,10.7478749 L50.6270146,2.47284347 Z M50.6270146,13.0924398 L67.9190011,13.0924398 L67.9190011,21.6923452 L50.6270146,21.6923452 L50.6270146,13.0924398 Z M31.5236181,2.47284347 L48.3798239,2.47284347 L48.3798239,10.7478749 L31.5236181,10.7478749 L31.5236181,2.47284347 Z M31.5236181,13.0924398 L48.3798239,13.0924398 L48.3798239,21.6923452 L31.5236181,21.6923452 L31.5236181,13.0924398 Z M10.3615659,63.1264808 L2.4266205,63.1264808 C2.32097193,63.0583277 2.24624872,62.9408619 2.24624872,62.8009515 L2.24624872,55.6999228 L10.3617229,55.6999228 L10.3617229,63.1264808 L10.3615659,63.1264808 Z M10.3615659,53.3538834 L2.24624872,53.3538834 L2.24624872,45.6532384 L10.3617229,45.6532384 L10.3617229,53.3538834 L10.3615659,53.3538834 Z M10.3615659,43.3090012 L2.24624872,43.3090012 L2.24624872,35.1787951 L10.3617229,35.1787951 L10.3617229,43.3090012 L10.3615659,43.3090012 Z M10.3615659,32.8329196 L2.24624872,32.8329196 L2.24624872,24.0375655 L10.3617229,24.0375655 L10.3617229,32.8329196 L10.3615659,32.8329196 Z M10.3615659,21.6923452 L2.24624872,21.6923452 L2.24624872,13.0924398 L10.3617229,13.0924398 L10.3617229,21.6923452 L10.3615659,21.6923452 Z M29.2759566,63.1264808 L12.6084426,63.1264808 L12.6084426,55.6999228 L29.2759566,55.6999228 L29.2759566,63.1264808 Z M29.2759566,53.3538834 L12.6084426,53.3538834 L12.6084426,45.6532384 L29.2759566,45.6532384 L29.2759566,53.3538834 Z M29.2759566,43.3090012 L12.6084426,43.3090012 L12.6084426,35.1787951 L29.2759566,35.1787951 L29.2759566,43.3090012 Z M29.2759566,32.8329196 L12.6084426,32.8329196 L12.6084426,24.0375655 L29.2759566,24.0375655 L29.2759566,32.8329196 Z M29.2759566,21.6923452 L12.6084426,21.6923452 L12.6084426,13.0924398 L29.2759566,13.0924398 L29.2759566,21.6923452 Z M29.2759566,10.7468919 L12.6084426,10.7468919 L12.6084426,2.47202433 L29.2759566,2.47202433 L29.2759566,10.7468919 Z M39.446162,42.2681919 C39.446162,40.8428747 40.5535097,39.6864018 41.9208189,39.6864018 C43.2876571,39.6864018 44.3957897,40.8428747 44.3957897,42.2681919 C44.3957897,42.9834718 44.1182463,43.6291242 43.6681803,44.0970214 L47.5924046,50.5066893 C47.9159435,50.3726768 48.2674252,50.2933833 48.6375876,50.2933833 C49.382308,50.2933833 50.0557588,50.5999084 50.5607683,51.0931992 L55.7107044,47.16473 C55.595009,46.8798304 55.5304896,46.565933 55.5304896,46.2359802 C55.5304896,44.9119097 56.5596606,43.8370239 57.8283853,43.8370239 C59.09711,43.8370239 60.1272228,44.9119097 60.1272228,46.2359802 C60.1272228,46.5051522 60.074477,46.7577774 59.9972421,46.9999175 L65.395209,50.5234 C65.9614414,50.0079921 66.6983127,49.6949138 67.5059827,49.6949138 C69.2820717,49.6949138 70.7220633,51.197231 70.7220633,53.0509625 C70.7220633,54.9042026 69.2811298,56.4073388 67.5059827,56.4073388 C65.7302076,56.4073388 64.29053,54.9040387 64.29053,53.0509625 C64.29053,52.4431548 64.4471976,51.8766322 64.715636,51.3853073 L59.4416845,47.9411183 C59.0256834,48.3687135 58.4569393,48.6339536 57.8285423,48.6339536 C57.2596412,48.6339536 56.7459976,48.4090156 56.3450668,48.0523586 L51.1864967,51.9868895 C51.3601183,52.3697592 51.464825,52.7937501 51.464825,53.2449367 C51.464825,54.8753686 50.198612,56.1969817 48.6369597,56.1969817 C47.0743655,56.1969817 45.8092514,54.8755324 45.8092514,53.2449367 C45.8092514,52.4020336 46.1536689,51.6435027 46.6983948,51.1056502 L42.769618,44.6861525 C42.5033773,44.7872354 42.2198687,44.8521119 41.9208189,44.8521119 C40.5552365,44.851948 39.446162,43.6954751 39.446162,42.2681919 Z M35.8187898,31.5845383 L35.8187898,68.2921909 L74.3517902,68.2921909 L74.3517902,31.5845383 L35.8187898,31.5845383 Z M72.7595266,66.6325974 L37.4099546,66.6325974 L37.4099546,33.2444594 L72.7603115,33.2444594 L72.7603115,66.6325974 L72.7595266,66.6324336 L72.7595266,66.6325974 Z" id="Shape"></path>
            </g>
        </g>
    </g>
</svg>